<?xml version="1.0" encoding="utf-8"?>
<svg width="32px" height="32px" viewBox="0 0 32 32" version="1.1" xmlns:xlink="http://www.w3.org/1999/xlink" xmlns="http://www.w3.org/2000/svg">
  <defs>
    <path d="M32 0L32 0L32 32L0 32L0 0L32 0Z" id="path_1" />
    <path d="M32 0L32 0L32 32L0 32L0 0L32 0L32 0Z" id="path_2" />
    <clipPath id="clip_1">
      <use xlink:href="#path_1" clip-rule="evenodd" fill-rule="evenodd" />
    </clipPath>
    <clipPath id="clip_2">
      <use xlink:href="#path_2" clip-rule="evenodd" fill-rule="evenodd" />
    </clipPath>
  </defs>
  <g id="hubspot-icon">
    <path d="M32 0L32 0L32 32L0 32L0 0L32 0Z" id="hubspot-icon" fill="none" stroke="none" />
    <g id="hubspot-icon" clip-path="url(#clip_1)">
      <path d="M32 0L32 0L32 32L0 32L0 0L32 0L32 0Z" id="hubspot-icon#1" fill="none" stroke="none" />
      <g id="Mask-Group">
        <path d="M32 0L32 0L32 32L0 32L0 0L32 0L32 0Z" id="path_1" fill="none" fill-rule="evenodd" stroke="none" />
        <g clip-path="url(#clip_2)">
          <path d="M29.3632 15.1999C28.6503 13.9823 27.6331 12.9712 26.4115 12.266C25.4789 11.7236 24.5145 11.3792 23.4257 11.2302L23.4257 7.3288C24.5061 6.88082 25.2045 5.81905 25.1884 4.6489C25.1923 3.86896 24.8854 3.11954 24.3355 2.56658C23.7857 2.01362 23.0383 1.70274 22.2587 1.70272C20.631 1.70272 19.31 3.02019 19.3046 4.6489C19.3046 5.84594 19.9394 6.86709 21.0307 7.3288L21.0307 11.2082C20.1267 11.3391 19.2496 11.6146 18.433 12.0241L7.99573 4.11634C8.06897 3.84029 8.13245 3.55447 8.13245 3.25399C8.13245 1.4511 6.67246 -0.00977161 4.87068 -0.00977161C3.06889 -0.00977161 1.61135 1.4511 1.61135 3.25399C1.61135 5.05687 3.07134 6.51775 4.87312 6.51775C5.48837 6.51775 6.05722 6.33697 6.54795 6.04138L7.23156 6.55928L16.5945 13.314C16.0989 13.7684 15.6374 14.2863 15.2688 14.8677C14.5217 16.0525 14.0652 17.3546 14.0652 18.7764L14.0652 19.0695C14.0685 20.0338 14.242 20.9899 14.5779 21.8936C14.8611 22.6656 15.2761 23.3692 15.7913 24.0043L12.6809 27.124C11.7605 26.7819 10.7277 27.0091 10.0319 27.7054C9.55827 28.1769 9.29215 28.8194 9.29459 29.4887C9.29703 30.1581 9.55827 30.7957 10.0343 31.2721C10.5104 31.7484 11.1476 32.0123 11.8166 32.0123C12.4856 32.0123 13.1277 31.7484 13.5989 31.2721C14.0701 30.7957 14.3386 30.1581 14.3362 29.4887C14.336 29.2319 14.2965 28.9765 14.219 28.7315L17.432 25.5166C17.8714 25.822 18.3475 26.0785 18.8602 26.2984C19.914 26.7608 21.0519 27.0004 22.2025 27.0019L22.4223 27.0019C23.77 27.0019 25.0419 26.6844 26.2358 26.037C27.463 25.3785 28.494 24.4067 29.2241 23.2203C29.9737 22.0232 30.3838 20.6967 30.3838 19.2383L30.3838 19.165C30.3838 17.731 30.0518 16.4094 29.3584 15.1977L29.3632 15.1999L29.3632 15.1999ZM25.4398 21.9473C24.5682 22.9172 23.5648 23.5157 22.432 23.5157L22.2171 23.5157C21.5702 23.5157 20.9354 23.3374 20.3177 23.01C19.6404 22.6576 19.0665 22.1348 18.6526 21.4929C18.2034 20.8578 17.9593 20.164 17.9593 19.4287L17.9593 19.2088C17.9593 18.4857 18.0984 17.7992 18.4476 17.1518C18.8211 16.419 19.3265 15.8937 19.9979 15.4564C20.6693 15.0192 21.3602 14.8091 22.1463 14.8091L22.2196 14.8091C22.9276 14.8091 23.6039 14.9483 24.2387 15.2732C24.8817 15.6116 25.4279 16.1086 25.8256 16.717C26.2193 17.3272 26.4628 18.0221 26.5361 18.7446L26.5531 19.2015C26.5531 20.1957 26.1723 21.1167 25.413 21.9522L25.4398 21.9473L25.4398 21.9473Z" id="Shape" fill="#F8761F" fill-rule="evenodd" stroke="none" />
        </g>
      </g>
    </g>
  </g>
</svg>