<?xml version="1.0" encoding="utf-8"?>
<svg width="32px" height="32px" viewBox="0 0 32 32" version="1.1" xmlns:xlink="http://www.w3.org/1999/xlink" xmlns="http://www.w3.org/2000/svg">
  <path d="M4 0C2.93915 0 1.92169 0.421417 1.17157 1.17157C0.421448 1.92172 0 2.93915 0 4L0 28C0 29.0608 0.421448 30.0783 1.17157 30.8284C1.92169 31.5785 2.93915 32 4 32L28 32C29.0608 32 30.0782 31.5785 30.8284 30.8284C31.5786 30.0783 32 29.0608 32 28L32 4C32 2.93915 31.5786 1.92172 30.8284 1.17157C30.0782 0.421417 29.0608 0 28 0L4 0L4 0ZM16.452 10.77C15.284 10.77 14.578 11.098 14.578 11.956C14.578 12.892 15.792 13.304 17.298 13.816C19.754 14.646 22.986 15.742 23 19.802C23 23.736 19.848 26 15.26 26C13.1902 25.9913 11.1435 25.5655 9.242 24.748L9.242 19.516C11.094 20.528 13.432 21.276 15.262 21.276C16.496 21.276 17.378 20.946 17.378 19.934C17.378 18.898 16.062 18.424 14.472 17.852C12.052 16.98 9 15.88 9 12.22C9 8.32999 11.976 6 16.452 6C18.3225 5.98328 20.179 6.32614 21.92 7.01001L21.92 12.176C20.244 11.276 18.128 10.77 16.452 10.77L16.452 10.77Z" id="Shape" fill="#696FFB" fill-rule="evenodd" stroke="none" />
</svg>