<?xml version="1.0" encoding="utf-8"?>
<svg width="32px" height="32px" viewBox="0 0 32 32" version="1.1" xmlns:xlink="http://www.w3.org/1999/xlink" xmlns="http://www.w3.org/2000/svg">
  <defs>
    <path d="M32 0L32 0L32 32L0 32L0 0L32 0Z" id="path_1" />
    <path d="M28.5056 0L28.5056 0L28.5056 32L0 32L0 0L28.5056 0Z" id="path_2" />
    <clipPath id="clip_1">
      <use xlink:href="#path_1" clip-rule="evenodd" fill-rule="evenodd" />
    </clipPath>
    <clipPath id="clip_2">
      <use xlink:href="#path_2" clip-rule="evenodd" fill-rule="evenodd" />
    </clipPath>
  </defs>
  <g id="Frame">
    <path d="M32 0L32 0L32 32L0 32L0 0L32 0Z" id="Frame" fill="none" stroke="none" />
    <g id="walmart-icon" clip-path="url(#clip_1)">
      <path d="M28.5056 0L28.5056 0L28.5056 32L0 32L0 0L28.5056 0Z" id="walmart-icon" fill="none" stroke="none" transform="translate(1 0)" />
      <path d="M14.2506 10.7725C14.9893 10.7725 15.5976 10.3825 15.6797 9.87881L16.4092 1.50695C16.4092 0.679309 15.4538 0 14.253 0C13.0532 0 12.0989 0.679282 12.0989 1.50695L12.8279 9.87881C12.908 10.3825 13.5162 10.7725 14.253 10.7725L14.2506 10.7725ZM9.79212 13.3875C10.1627 12.739 10.1349 12.0101 9.74422 11.686L2.96385 6.85899C2.25881 6.44465 1.20176 6.94334 0.601864 7.99927C9.08971e-07 9.0537 0.106599 10.2317 0.80964 10.6459L8.31755 14.1938C8.78689 14.3704 9.42689 14.0306 9.79456 13.3826L9.79212 13.3875M18.713 13.383C19.0831 14.0311 19.7197 14.371 20.1895 14.1943L27.6974 10.6465C28.4049 10.2322 28.5056 9.05414 27.9091 7.99972C27.3063 6.94481 26.2473 6.44512 25.5442 6.85949L18.7633 11.6865C18.3756 12.0101 18.3468 12.7394 18.7154 13.388L18.7125 13.383M14.2506 21.2304C14.9893 21.2304 15.5976 21.617 15.6797 22.1211L16.4092 30.4921C16.4092 31.3222 15.4538 32 14.253 32C13.0532 32 12.0989 31.3222 12.0989 30.4921L12.8279 22.1211C12.908 21.617 13.5162 21.2304 14.253 21.2304L14.2506 21.2304ZM18.713 18.615C19.0831 17.9649 19.7197 17.628 20.1895 17.8067L27.6974 21.352C28.4049 21.7668 28.5056 22.9458 27.9091 24.0012C27.3063 25.0527 26.2473 25.5538 25.5442 25.14L18.7633 20.3174C18.3756 19.9914 18.3468 19.2615 18.7154 18.6135L18.7125 18.6135M9.79212 18.614C10.1627 19.2616 10.1349 19.9914 9.74422 20.3179L2.96385 25.1405C2.25881 25.5544 1.20176 25.0532 0.601863 24.0017C-6.55651e-07 22.9463 0.106597 21.7673 0.809638 21.3524L8.31755 17.8071C8.78689 17.6285 9.42689 17.9654 9.79456 18.6155L9.79212 18.6155" id="Shape" fill="#FFC220" fill-rule="evenodd" stroke="none" clip-path="url(#clip_2)" transform="translate(1 0)" />
    </g>
  </g>
</svg>